P3
50 33
255
220 235 255
220 235 255
220 235 255
220 235 255
220 235 255
220 235 255
220 235 255
220 235 255
220 235 255
220 235 255
220 235 255
220 235 255
220 235 255
220 235 255
220 235 255
220 235 255
220 235 255
220 235 255
220 235 255
220 235 255
220 235 255
220 235 255
220 235 255
220 235 255
220 235 255
220 235 255
220 235 255
220 235 255
220 235 255
220 235 255
220 235 255
220 235 255
220 235 255
220 235 255
220 235 255
220 235 255
220 235 255
220 235 255
220 235 255
220 235 255
220 235 255
220 235 255
220 235 255
220 235 255
220 235 255
220 235 255
220 235 255
220 235 255
220 235 255
220 235 255
220 235 255
220 235 255
220 235 255
221 235 255
220 235 255
220 235 255
220 235 255
220 235 255
221 235 255
220 235 255
220 235 255
220 235 255
220 235 255
220 235 255
221 235 255
220 235 255
220 235 255
220 235 255
221 235 255
220 235 255
220 235 255
220 235 255
220 235 255
220 235 255
220 235 255
220 235 255
220 235 255
220 235 255
220 235 255
221 235 255
221 235 255
221 235 255
220 235 255
220 235 255
220 235 255
220 235 255
220 235 255
220 235 255
220 235 255
220 235 255
220 235 255
220 235 255
220 235 255
220 235 255
220 235 255
220 235 255
220 235 255
221 235 255
220 235 255
220 235 255
221 235 255
221 235 255
221 235 255
221 235 255
221 235 255
221 235 255
221 235 255
221 235 255
221 235 255
221 235 255
221 235 255
221 235 255
221 235 255
221 235 255
221 235 255
221 235 255
221 235 255
221 235 255
221 235 255
221 235 255
221 235 255
221 235 255
221 235 255
221 235 255
221 235 255
221 235 255
221 235 255
221 235 255
221 235 255
221 235 255
221 235 255
221 235 255
221 235 255
221 235 255
221 235 255
221 235 255
221 235 255
221 235 255
221 235 255
221 235 255
221 235 255
221 235 255
221 235 255
221 235 255
221 235 255
221 235 255
221 235 255
221 235 255
221 235 255
221 235 255
221 236 255
221 236 255
221 236 255
221 236 255
221 236 255
221 236 255
221 236 255
221 236 255
221 236 255
221 236 255
221 236 255
221 236 255
221 236 255
221 236 255
221 236 255
221 236 255
221 236 255
213 226 244
178 180 189
167 166 173
164 160 164
213 226 244
202 217 238
182 199 221
180 197 219
203 220 242
217 232 252
216 230 251
221 236 255
221 236 255
214 225 242
208 219 236
205 216 232
201 211 225
210 222 239
206 217 232
212 223 239
221 236 255
221 236 255
221 236 255
221 236 255
221 236 255
221 236 255
221 236 255
221 236 255
221 236 255
221 236 255
221 236 255
221 236 255
221 236 255
222 236 255
222 236 255
222 236 255
222 236 255
222 236 255
222 236 255
222 236 255
222 236 255
222 236 255
222 236 255
222 236 255
222 236 255
222 236 255
222 236 255
222 236 255
218 231 250
164 159 163
133 111 97
128 99 79
120 96 78
141 137 142
149 166 190
142 160 184
136 154 179
138 155 175
149 175 199
154 177 202
153 170 191
204 214 228
176 182 189
167 173 181
161 170 181
159 169 181
159 169 181
159 169 181
162 171 181
167 173 181
183 189 198
215 228 246
222 236 255
222 236 255
222 236 255
222 236 255
222 236 255
222 236 255
222 236 255
222 236 255
222 236 255
222 236 255
222 236 255
222 236 255
222 236 255
222 236 255
222 236 255
222 236 255
222 236 255
222 236 255
222 236 255
222 236 255
222 236 255
222 236 255
222 236 255
222 236 255
222 236 255
222 236 255
181 185 196
115 91 71
115 90 75
119 94 76
130 132 143
136 155 180
120 124 147
105 100 121
107 116 134
141 162 190
138 159 181
134 152 173
166 173 181
166 173 181
161 170 181
157 168 181
154 167 181
152 166 181
153 166 181
153 166 181
155 167 181
157 168 181
161 170 181
168 173 181
200 209 221
222 236 255
222 236 255
222 236 255
222 236 255
222 236 255
222 236 255
222 236 255
222 236 255
222 236 255
222 236 255
222 236 255
222 236 255
222 236 255
222 236 255
222 236 255
222 236 255
222 236 255
222 236 255
222 236 255
222 236 255
222 236 255
223 236 255
222 236 255
222 236 255
202 210 225
118 95 76
119 93 75
122 96 77
133 126 129
144 160 184
130 141 165
109 61 99
128 121 152
112 125 142
96 109 119
106 120 133
159 166 176
167 173 181
161 170 181
157 168 181
154 167 181
153 166 181
151 166 181
151 166 181
152 166 181
153 166 181
155 167 181
158 169 181
162 171 181
170 175 181
187 191 198
221 234 252
222 236 255
222 236 255
222 236 255
222 236 255
222 236 255
222 236 255
222 236 255
222 236 255
223 236 255
223 236 255
223 236 255
223 236 255
223 236 255
223 236 255
223 236 255
223 236 255
223 236 255
223 236 255
219 233 252
216 230 249
223 236 255
220 233 252
154 149 151
118 93 74
113 89 71
115 90 72
138 116 137
102 133 148
87 129 140
121 133 161
115 132 158
121 134 155
94 104 121
140 138 140
170 175 181
164 172 181
160 170 181
157 168 181
155 168 181
154 167 181
153 166 181
153 166 181
153 166 181
154 167 181
156 168 181
158 169 181
161 170 181
166 173 181
173 176 181
206 215 228
220 233 252
223 236 255
223 236 255
223 236 255
223 236 255
223 236 255
223 236 255
223 236 255
153 170 194
151 168 189
150 167 189
153 170 194
160 176 198
172 188 210
180 196 217
174 189 210
173 189 210
169 185 206
162 179 202
152 170 194
150 167 189
152 170 194
119 108 108
100 79 63
112 87 69
120 105 96
157 165 189
50 131 124
109 119 167
92 107 139
115 136 162
99 120 134
131 147 167
175 177 181
169 174 181
165 172 181
162 171 181
160 170 181
158 169 181
156 168 181
156 168 181
156 168 181
156 168 181
157 168 181
158 169 181
161 170 181
163 171 181
166 173 181
170 175 181
177 178 181
179 194 214
161 177 198
163 180 202
159 175 198
173 189 210
181 197 217
166 183 206
181 197 217
138 157 181
131 156 172
134 155 181
138 156 181
144 159 189
139 157 181
141 158 181
137 156 181
138 157 181
141 160 182
142 163 184
137 156 181
141 158 181
144 167 190
117 129 135
112 86 69
93 76 60
141 131 133
128 150 159
107 135 141
122 135 143
130 168 181
133 154 178
79 107 112
166 169 171
176 177 181
171 175 181
168 174 181
166 173 181
164 172 181
162 171 181
161 170 181
161 170 181
161 170 181
161 170 181
161 170 181
163 171 181
164 172 181
166 173 181
168 174 181
172 175 181
177 178 181
148 151 190
81 115 191
93 119 147
87 95 118
149 146 172
133 148 173
136 155 181
142 160 171
107 148 167
55 114 172
36 118 129
123 140 171
110 80 112
151 145 178
97 159 151
108 151 152
165 164 184
170 167 185
175 199 195
71 102 98
97 128 134
55 101 112
112 110 121
108 86 68
90 72 55
137 136 146
184 205 224
189 198 218
173 186 198
157 166 190
185 185 211
184 194 207
177 176 176
178 179 181
174 177 181
172 176 181
170 175 181
169 174 181
168 173 181
167 173 181
167 173 181
166 173 181
167 173 181
167 173 181
168 174 181
168 174 181
170 175 181
172 176 181
175 177 181
177 178 181
181 177 178
15 96 125
128 116 97
96 110 156
118 125 156
145 183 218
120 154 174
135 150 173
82 106 119
63 76 158
101 111 112
78 65 108
56 29 104
88 78 68
95 135 136
60 71 195
85 82 143
126 117 130
101 112 116
106 79 131
80 85 96
43 63 79
92 42 50
79 55 44
80 69 54
148 153 160
209 224 246
210 225 247
213 227 248
217 231 252
209 223 243
201 212 226
183 181 181
180 180 181
178 179 181
176 178 181
175 177 181
174 177 181
173 176 181
173 176 181
173 176 181
173 176 181
172 176 181
173 176 181
173 176 181
173 176 181
175 177 181
176 178 181
178 179 181
180 180 181
184 182 181
118 127 137
133 164 183
135 164 170
119 108 66
39 89 75
91 114 141
105 126 154
51 45 32
47 72 60
44 104 91
90 64 109
95 52 114
40 99 80
78 98 128
58 67 162
89 140 101
103 135 119
114 136 134
84 111 46
89 97 69
66 73 90
95 100 101
82 116 117
92 58 43
91 69 67
198 215 241
209 226 249
212 229 252
207 222 246
216 233 255
185 197 214
170 167 168
184 182 181
182 181 181
181 180 181
180 180 181
179 179 181
179 179 181
179 179 181
178 179 181
178 179 181
178 179 181
178 179 181
179 179 181
180 179 181
181 180 181
181 180 181
182 181 181
184 182 181
173 172 171
70 50 89
70 61 152
99 92 89
118 102 48
77 85 134
73 99 144
49 119 170
59 70 77
97 123 103
84 141 89
62 76 66
39 94 115
36 112 130
118 145 163
128 152 162
93 135 104
97 128 106
162 170 167
138 157 147
59 74 15
107 134 141
6 161 122
5 155 117
76 54 36
110 119 110
148 172 196
208 228 255
210 229 255
211 230 255
211 230 255
154 171 183
90 100 105
137 133 133
144 142 145
155 151 150
157 157 157
165 164 168
169 169 169
167 166 166
172 171 171
169 169 169
169 168 169
178 177 176
170 169 169
169 169 169
173 172 171
135 135 132
150 153 155
145 148 150
103 109 105
66 92 186
45 20 161
35 77 93
32 85 69
34 128 71
36 134 87
41 88 121
66 85 131
125 151 149
125 152 134
115 143 101
43 103 118
30 94 108
121 142 162
109 120 151
81 66 124
118 128 150
145 152 168
156 158 167
55 74 101
108 129 146
63 114 106
29 119 94
77 83 90
46 72 145
18 70 167
180 192 239
194 214 242
203 224 252
207 227 255
176 187 212
95 109 112
90 86 102
107 106 106
105 106 111
84 76 85
97 92 86
93 100 118
97 93 111
100 115 119
94 106 102
92 103 93
98 118 107
91 113 102
109 116 125
101 107 107
90 92 100
88 94 100
101 101 93
91 88 92
107 101 109
61 62 106
25 79 19
23 77 24
35 110 81
40 122 98
96 123 141
114 130 148
102 124 118
135 158 189
101 121 123
106 125 143
96 109 128
118 136 157
89 98 134
105 102 131
128 81 68
103 65 75
54 41 71
17 24 69
93 106 129
129 145 170
112 96 140
147 164 165
66 90 152
145 138 216
173 164 249
170 170 239
198 223 255
195 218 249
184 205 235
105 120 122
68 71 113
100 104 112
86 99 101
83 92 107
99 89 89
91 74 70
94 98 106
96 109 128
99 106 109
96 99 112
80 65 125
82 88 100
70 80 106
108 114 124
112 83 99
85 85 91
92 91 102
78 80 89
93 78 72
104 117 133
104 120 137
68 98 102
51 95 95
93 72 91
106 90 111
134 143 162
173 197 213
182 202 228
121 140 160
141 157 185
147 153 195
136 145 173
127 143 167
115 105 116
121 78 48
125 79 49
98 62 49
13 17 49
114 128 149
106 86 134
111 42 136
99 38 126
113 122 136
108 119 154
103 96 159
104 102 164
129 146 200
154 177 231
175 200 237
97 117 111
78 67 77
104 132 118
97 138 111
98 106 115
96 100 105
86 72 66
92 95 102
99 104 111
75 77 78
94 99 105
114 120 126
103 108 116
108 113 121
108 111 117
102 105 112
113 95 98
95 79 81
100 81 91
93 72 77
121 137 158
133 152 176
113 132 151
101 43 74
100 37 71
83 37 64
124 144 168
128 145 167
136 154 178
131 144 169
143 168 195
72 194 173
89 179 170
127 144 167
127 128 143
114 75 57
120 75 47
107 98 103
116 131 152
126 139 160
111 103 147
110 102 143
83 43 105
124 139 167
135 153 176
110 121 150
102 112 166
43 60 225
41 59 217
51 89 196
71 138 109
93 95 104
105 111 116
93 106 100
106 114 116
108 115 118
100 106 110
103 109 114
102 108 112
110 114 119
83 99 98
99 96 118
81 47 105
103 91 113
110 114 123
108 112 119
98 89 91
93 94 111
100 66 84
92 49 67
129 145 167
132 146 190
131 148 171
26 34 34
34 43 41
32 42 40
107 99 139
128 145 169
125 143 165
131 148 173
21 187 150
19 173 139
20 183 146
115 145 155
102 114 189
75 93 198
120 131 153
133 150 174
127 139 162
133 147 164
131 136 158
105 89 104
103 61 71
115 121 140
131 148 173
138 154 177
116 132 173
30 42 164
35 50 189
35 50 194
55 94 98
91 98 103
109 113 118
94 100 103
102 108 113
106 109 116
93 67 91
97 82 98
85 84 87
94 114 114
49 117 92
41 120 93
61 57 75
90 87 97
106 111 118
91 89 94
91 90 93
98 68 81
102 42 49
99 97 113
144 155 223
134 149 228
145 161 247
83 93 131
29 39 38
27 35 34
112 57 85
102 91 133
131 147 172
123 148 166
34 161 132
15 136 112
14 133 110
91 128 176
42 53 184
44 54 197
49 63 185
128 146 173
136 152 174
128 141 163
89 62 77
92 20 38
85 19 35
95 80 94
131 151 170
138 156 181
128 145 175
84 98 169
24 34 130
77 88 156
115 131 150
111 131 145
115 123 134
94 93 95
86 87 88
97 90 101
62 17 51
61 16 50
68 48 66
66 100 89
22 83 60
56 95 78
86 90 93
90 95 100
94 94 97
96 94 97
111 85 86
101 31 24
118 37 29
104 117 140
84 76 111
114 116 176
130 138 206
68 73 104
72 49 49
124 72 71
134 68 42
113 117 139
130 151 174
115 131 149
115 135 154
78 125 122
83 118 123
83 97 164
44 56 196
39 50 180
37 46 161
95 109 151
91 110 138
107 125 153
75 55 73
81 18 34
111 143 126
130 206 185
134 201 178
128 152 161
116 129 152
112 128 159
105 117 143
109 127 142
126 144 170
122 135 155
136 151 171
101 106 113
84 81 86
101 62 109
94 28 95
85 25 82
55 50 52
55 52 57
51 86 73
69 140 121
75 136 121
80 79 80
93 91 102
85 63 102
77 25 43
102 31 25
105 81 92
125 141 165
86 92 141
88 91 144
82 90 143
124 134 160
142 80 78
164 94 93
99 51 35
118 126 141
130 146 171
111 128 160
129 148 172
134 152 176
130 149 176
108 129 172
36 45 159
31 41 148
52 60 135
44 74 106
14 43 80
15 47 86
31 40 70
62 76 79
122 189 167
141 220 195
142 218 190
91 113 115
130 147 170
125 141 160
121 134 151
126 141 160
117 130 147
117 128 143
111 124 141
113 126 145
90 52 97
97 30 103
102 32 107
80 28 89
71 65 77
47 85 73
51 185 156
51 182 156
51 183 156
74 111 124
105 44 161
108 45 165
99 41 147
98 68 97
99 101 120
110 116 134
97 114 140
78 87 122
97 106 130
122 118 136
128 73 74
146 81 78
102 93 102
113 126 146
124 138 160
134 152 176
126 145 169
132 151 176
125 144 170
123 140 166
78 88 124
100 112 142
83 96 130
60 92 169
64 97 179
56 86 157
14 44 78
89 108 119
70 112 99
116 174 150
92 142 123
108 97 77
133 102 83
130 121 126
121 129 146
127 141 160
117 132 147
110 121 136
108 119 138
109 118 131
78 30 82
88 28 96
97 30 102
85 26 90
58 50 61
36 99 84
44 155 132
46 162 135
41 151 130
63 120 135
98 42 153
91 38 137
100 42 153
99 73 146
120 131 148
124 137 158
116 129 145
118 127 149
128 144 169
112 123 145
111 84 90
126 70 68
128 145 168
135 153 176
136 147 163
143 147 145
125 141 165
130 148 179
131 148 175
124 138 162
128 143 165
129 147 167
75 102 169
54 80 143
57 83 148
58 87 160
48 69 115
127 146 168
71 104 98
83 136 116
101 110 90
117 82 58
119 83 58
121 84 60
131 108 101
112 120 140
102 116 128
127 141 161
119 129 146
99 103 114
99 87 114
79 25 85
71 23 78
56 35 60
48 56 55
42 43 31
37 37 7
40 40 7
37 99 81
77 46 122
101 42 152
86 37 138
96 40 150
94 79 129
109 129 145
122 138 158
111 119 138
119 128 145
115 128 142
112 119 136
108 116 135
112 125 142
133 150 172
136 143 145
148 128 4
156 132 4
148 127 4
138 145 145
131 150 176
128 147 172
135 154 178
126 140 162
60 66 118
72 63 116
58 82 145
57 85 154
70 91 128
99 123 132
86 106 116
82 101 106
112 94 87
119 82 56
120 83 58
114 78 55
118 81 57
126 139 158
114 128 142
136 152 174
134 154 190
143 178 241
131 165 224
118 139 187
89 95 110
63 64 77
68 72 74
35 35 7
37 37 7
39 38 7
33 32 19
95 107 126
68 29 108
79 33 125
87 58 131
109 119 141
119 133 155
122 138 156
128 145 168
119 132 155
118 125 153
121 118 187
121 115 184
129 147 170
134 140 146
132 110 3
153 129 4
144 122 4
129 111 3
136 113 40
137 152 172
125 142 166
132 149 172
102 85 100
87 12 15
92 12 15
84 15 17
54 57 105
101 114 137
116 133 154
124 142 165
119 134 156
118 119 126
110 76 52
111 77 53
100 70 49
108 85 77
121 140 163
123 137 156
127 143 164
152 181 239
145 184 255
146 185 255
153 188 255
109 123 146
113 128 148
66 71 73
29 30 6
34 34 6
32 31 6
31 31 6
82 92 110
93 103 124
97 101 127
94 100 127
112 122 150
120 135 156
118 128 153
128 143 167
123 123 189
113 48 236
105 46 227
106 47 230
116 107 204
113 121 131
122 101 3
133 112 3
135 112 3
116 92 3
134 118 57
119 136 159
127 146 169
106 104 122
85 11 14
83 11 14
86 11 14
81 11 13
86 52 62
96 111 136
123 138 159
121 135 157
118 134 157
127 141 163
95 83 83
90 65 47
75 59 52
122 136 154
118 149 165
129 145 167
112 127 149
131 154 206
144 178 237
144 176 236
134 164 218
117 138 185
126 143 168
108 122 140
25 25 5
35 34 6
30 30 5
53 57 57
120 137 159
124 141 165
129 144 165
126 142 167
130 148 172
132 149 171
130 148 172
133 153 178
103 70 194
104 45 225
99 43 205
103 45 218
93 41 201
127 140 157
110 124 148
122 127 130
116 123 135
107 110 117
129 131 128
134 152 177
127 144 167
114 112 128
71 9 12
81 11 13
75 10 12
78 10 13
75 10 12
112 127 150
124 140 163
130 151 177
118 135 157
114 124 141
112 123 140
98 107 122
87 120 130
47 142 144
38 145 149
55 147 151
101 131 149
99 125 174
93 124 169
97 124 168
98 127 172
110 130 164
113 129 154
103 115 131
79 88 99
19 19 3
66 74 81
107 118 134
122 136 156
110 128 147
122 138 161
128 144 170
132 150 174
131 148 174
130 148 173
128 146 176
92 45 201
85 51 171
94 43 196
98 42 206
93 42 195
112 138 179
102 129 175
106 135 182
108 136 180
107 131 169
99 114 137
120 132 145
126 141 161
112 124 144
63 8 10
76 10 12
70 9 11
72 9 12
81 70 81
130 148 174
127 146 171
125 140 162
129 146 169
125 142 165
133 152 176
123 152 174
35 132 135
37 139 142
36 141 135
35 134 135
49 137 140
82 128 147
87 111 157
91 116 168
93 114 158
116 133 159
114 133 165
117 135 159
111 127 148
112 126 150
108 124 145
107 123 140
131 148 171
113 130 151
127 145 168
131 148 169
128 142 175
126 142 167
123 144 173
104 110 142
75 63 120
74 64 123
77 63 125
77 54 145
77 34 169
80 105 175
106 133 174
92 114 157
87 107 146
85 111 146
105 124 154
124 138 156
121 137 159
116 127 140
94 98 114
51 7 8
61 8 10
76 61 70
98 105 121
121 135 157
110 120 138
131 150 176
133 152 176
132 153 178
130 148 172
90 134 146
36 136 139
32 124 125
36 136 137
35 128 129
34 129 126
90 137 152
108 123 147
91 106 134
106 120 148
115 135 161
110 129 157
123 140 164
119 140 169
128 146 169
124 142 167
128 147 171
121 140 163
129 146 172
129 145 172
129 146 169
122 139 164
125 140 169
99 107 140
65 55 106
66 57 103
71 61 116
68 60 111
65 57 109
94 97 145
30 60 185
72 94 151
79 97 137
84 103 140
88 113 146
107 129 164
122 136 156
121 133 151
123 138 160
98 107 123
73 78 90
70 72 81
91 101 115
101 110 128
120 135 156
117 130 151
136 155 181
124 141 164
121 139 159
128 149 173
109 144 162
36 136 137
31 119 119
32 121 122
36 133 134
31 121 120
91 138 148
121 143 169
131 148 174
133 150 173
133 151 176
132 150 171
131 149 176
118 141 165
131 150 176
129 147 171
127 144 166
128 147 171
129 147 175
135 153 176
129 146 171
132 147 173
127 147 172
88 88 123
69 59 112
69 58 111
65 57 105
63 56 100
69 59 110
70 77 103
18 51 178
17 50 174
63 81 135
78 98 130
89 109 145
107 124 145
131 148 172
139 153 177
141 158 181
129 143 168
131 140 165
129 137 161
128 144 166
126 144 169
119 138 163
120 134 153
127 146 168
129 149 173
128 145 168
125 143 168
128 147 171
70 110 117
29 108 109
31 117 118
33 124 124
73 136 141
120 141 163
133 152 177
120 143 165
109 130 150
126 145 173
138 155 178
137 156 181
137 156 181
133 153 177
126 151 169
101 136 130
72 140 81
66 137 70
106 146 134
130 148 165
133 152 176
129 142 168
106 119 148
54 48 86
61 54 97
50 44 80
69 60 109
59 51 94
84 94 117
16 46 162
17 47 166
55 72 132
63 78 109
93 107 130
127 146 167
137 156 181
140 159 185
132 135 162
135 112 148
136 77 126
130 59 115
126 107 138
124 135 158
124 144 170
131 149 174
135 153 176
117 136 160
110 127 148
120 139 160
123 140 162
109 130 149
64 101 111
22 86 85
88 110 123
89 111 128
117 136 156
130 148 171
122 144 169
125 146 169
132 152 177
135 155 181
137 156 181
131 149 172
124 149 166
69 130 72
44 132 9
44 136 9
42 130 9
42 127 9
90 141 111
128 146 169
125 141 163
122 139 163
64 60 97
50 44 80
51 45 84
60 53 94
58 51 92
110 131 143
